name C:\Users\u0101727\Documents\MyRepositories\upper-imu-dc\Results\main_tracking\Case_31\FLX01_linearAccelerations_groundFrame.mot
datacolumns 4
datarows 70
range 5.01000000 5.70000000
endheader 
time	radius_imu_x	radius_imu_y	radius_imu_z	
          5.01000000	         -0.27564283	         10.75360739	         -1.72121870	
          5.02000000	         -0.13479449	         10.78121811	         -1.83549556	
          5.03000000	          0.01472094	         10.79850224	         -1.90901889	
          5.04000000	          0.13983992	         10.81306227	         -1.89083096	
          5.05000000	          0.21128391	         10.83180012	         -1.76359819	
          5.06000000	          0.21681732	         10.85745565	         -1.55655812	
          5.07000000	          0.16644074	         10.88534961	         -1.33310336	
          5.08000000	          0.08727977	         10.90285008	         -1.16078420	
          5.09000000	          0.01168444	         10.89368240	         -1.08110967	
          5.10000000	         -0.03422277	         10.84473564	         -1.09749587	
          5.11000000	         -0.03671090	         10.75085526	         -1.18668966	
          5.12000000	          0.00560333	         10.61523111	         -1.32453041	
          5.13000000	          0.08496532	         10.44751031	         -1.50557779	
          5.14000000	          0.18647039	         10.26320674	         -1.73785015	
          5.15000000	          0.28923756	         10.08345709	         -2.01850962	
          5.16000000	          0.37131034	          9.93129708	         -2.31771937	
          5.17000000	          0.42020635	          9.82399726	         -2.59037284	
          5.18000000	          0.44338671	          9.76600101	         -2.80675816	
          5.19000000	          0.46860426	          9.74789488	         -2.97461421	
          5.20000000	          0.53176906	          9.75237919	         -3.13758054	
          5.21000000	          0.66127279	          9.76361280	         -3.35668475	
          5.22000000	          0.86808714	          9.77546715	         -3.68622845	
          5.23000000	          1.14308025	          9.79522319	         -4.15057518	
          5.24000000	          1.45835004	          9.84042345	         -4.72754472	
          5.25000000	          1.77147699	          9.92939072	         -5.34782617	
          5.26000000	          2.03454334	         10.07051791	         -5.91688195	
          5.27000000	          2.20687072	         10.25753592	         -6.34864546	
          5.28000000	          2.26539735	         10.47304420	         -6.59105903	
          5.29000000	          2.20735188	         10.69585021	         -6.63542965	
          5.30000000	          2.04465602	         10.90670299	         -6.51158389	
          5.31000000	          1.79402749	         11.09063135	         -6.27243220	
          5.32000000	          1.46939477	         11.23697549	         -5.97484708	
          5.33000000	          1.08033614	         11.33888313	         -5.66453763	
          5.34000000	          0.63508775	         11.39315808	         -5.36882895	
          5.35000000	          0.14447081	         11.40017832	         -5.09766258	
          5.36000000	         -0.37626394	         11.36358715	         -4.84931537	
          5.37000000	         -0.90836645	         11.28969546	         -4.61632195	
          5.38000000	         -1.43218670	         11.18693268	         -4.38960519	
          5.39000000	         -1.92989216	         11.06534907	         -4.16025673	
          5.40000000	         -2.38809456	         10.93545802	         -3.92059058	
          5.41000000	         -2.80069076	         10.80818688	         -3.66098361	
          5.42000000	         -3.16814400	         10.69545152	         -3.37556174	
          5.43000000	         -3.49708507	         10.60955124	         -3.06232673	
          5.44000000	         -3.79577763	         10.56075411	         -2.72789061	
          5.45000000	         -4.07089409	         10.55267099	         -2.38507898	
          5.46000000	         -4.32581116	         10.57942774	         -2.04694317	
          5.47000000	         -4.56084044	         10.62639582	         -1.72381548	
          5.48000000	         -4.77637277	         10.67197337	         -1.41891424	
          5.49000000	         -4.97488835	         10.69269448	         -1.13000123	
          5.50000000	         -5.15074081	         10.66667993	         -0.82023391	
          5.51000000	         -5.33166024	         10.61811288	         -0.59082207	
          5.52000000	         -5.47952623	         10.46109233	         -0.29451365	
          5.53000000	         -5.56920661	         10.35904394	         -0.02588133	
          5.54000000	         -5.63039635	         10.28660233	          0.10755240	
          5.55000000	         -5.59755318	         10.16922708	          0.17493869	
          5.56000000	         -5.49574235	         10.09742517	          0.16857433	
          5.57000000	         -5.30725051	         10.08694939	          0.01843851	
          5.58000000	         -4.98856275	         10.16416712	         -0.24117272	
          5.59000000	         -4.60340994	         10.23435495	         -0.83360367	
          5.60000000	         -3.46872762	          9.41473794	         -1.70085212	
          5.61000000	         -3.41756259	         10.36554691	         -1.85578070	
          5.62000000	         -3.75529480	         10.44804322	         -1.35400666	
          5.63000000	         -3.13475075	         10.48487960	         -1.75918673	
          5.64000000	         -2.98962984	         10.47506187	         -1.64977706	
          5.65000000	         -2.89714951	         10.47848316	         -1.53732794	
          5.66000000	         -2.83793341	         10.44910728	         -1.43377033	
          5.67000000	         -2.79782813	         10.41904790	         -1.37038518	
          5.68000000	         -2.75989039	         10.39512905	         -1.37478364	
          5.69000000	         -2.71309671	         10.37892416	         -1.46328588	
          5.70000000	         -2.65227277	         10.36320236	         -1.63962966	
